<?xml version="1.0" encoding="UTF-8"?>
<svg width="200px" height="47px" viewBox="0 0 200 47" version="1.1" xmlns="http://www.w3.org/2000/svg" xmlns:xlink="http://www.w3.org/1999/xlink">
    <!-- Generator: Sketch 52.3 (67297) - http://www.bohemiancoding.com/sketch -->
    <title>img corelight logo</title>
    <desc>Created with Sketch.</desc>
    <defs>
        <polygon id="path-1" points="0.052173913 0.84173913 167.622609 0.84173913 167.622609 46.0347826 0.052173913 46.0347826"></polygon>
    </defs>
    <g id="Symbols" stroke="none" stroke-width="1" fill="none" fill-rule="evenodd">
        <g id="XL-header-active-popular" transform="translate(-135.000000, -30.000000)">
            <g id="header">
                <g id="img-corelight-logo" transform="translate(135.000000, 30.000000)">
                    <g id="Group-4">
                        <mask id="mask-2" fill="white">
                            <use xlink:href="#path-1"></use>
                        </mask>
                        <g id="Clip-2"></g>
                        <path d="M40.3173913,24.2886957 C39.8756522,33.7121739 32.1191304,41.2234783 22.5869565,41.2234783 C14.0147826,41.2234783 6.86,35.1547826 5.18347826,27.08 C4.95217391,25.9347826 4.82956522,24.7486957 4.82956522,23.5347826 C4.82956522,13.7191304 12.7852174,5.7626087 22.6,5.76 L22.6,0.84173913 C10.1165217,0.853913043 0,10.9773913 0,23.4643478 C0,35.9582609 10.1286957,46.0869565 22.6226087,46.0869565 C34.8408696,46.0869565 44.7947826,36.4008696 45.2295652,24.2886957 L40.3173913,24.2886957" id="Fill-1" fill="#00FF17" mask="url(#mask-2)"></path>
                        <path d="M164.045217,29.8669565 C162.585217,31.2095652 161.194783,31.8869565 159.913913,31.8869565 C158.411304,31.8869565 157.67913,31.1547826 157.67913,29.6521739 L157.67913,15.0452174 C157.67913,13.4286957 158.351304,12.7069565 159.863478,12.7069565 C161.126087,12.7069565 162.495652,13.4495652 164.045217,14.9756522 L164.045217,29.8669565 Z M165.86,9.53913043 L165.758261,9.53913043 C164.653913,9.53913043 164.045217,10.146087 164.045217,11.2495652 L164.045217,11.2643478 C162.572174,9.98173913 160.98,9.33391304 159.29913,9.33391304 C155.898261,9.33391304 154.101739,11.1852174 154.101739,14.686087 L154.101739,29.9617391 C154.101739,33.3626087 155.995652,35.3121739 159.29913,35.3121739 C160.825217,35.3121739 162.403478,34.6513043 163.993913,33.3426087 L163.993913,40.6165217 C163.993913,42.1069565 163.284348,42.8017391 161.76,42.8017391 L159.965217,42.8017391 C158.370435,42.8017391 157.626957,42.1226087 157.626957,40.6686957 L157.626957,40.4634783 C157.626957,39.7973913 157.348696,39.006087 156.01913,39.006087 L155.865217,39.006087 C154.826087,39.006087 154.253913,39.5591304 154.253913,40.566087 L154.253913,40.7704348 C154.253913,44.286087 156.141739,46.0695652 159.863478,46.0695652 L161.655652,46.0695652 C165.558261,46.0695652 167.622609,44.0582609 167.622609,40.2582609 L167.622609,11.2495652 C167.622609,10.1304348 167.012174,9.53913043 165.86,9.53913043 Z" id="Fill-3" fill="#FFFFFE" mask="url(#mask-2)"></path>
                    </g>
                    <path d="M146.538261,38.0973913 C147.693913,38.0973913 148.303478,37.4878261 148.303478,36.3347826 L148.303478,11.473913 C148.303478,10.3191304 147.693913,9.70956522 146.538261,9.70956522 L146.435652,9.70956522 C145.283478,9.70956522 144.674783,10.3191304 144.674783,11.473913 L144.674783,36.3347826 C144.674783,37.4878261 145.283478,38.0973913 146.435652,38.0973913 L146.538261,38.0973913" id="Fill-5" fill="#FFFFFE"></path>
                    <path d="M146.538261,1.47217391 L146.435652,1.47217391 C145.283478,1.47217391 144.622609,2.13304348 144.622609,3.28782609 L144.622609,4.5173913 C144.622609,5.67217391 145.283478,6.33304348 146.435652,6.33304348 L146.538261,6.33304348 C147.693913,6.33304348 148.353913,5.67217391 148.353913,4.5173913 L148.353913,3.28782609 C148.353913,2.13304348 147.693913,1.47217391 146.538261,1.47217391" id="Fill-6" fill="#FFFFFE"></path>
                    <path d="M136.32,38.0973913 C137.476522,38.0973913 138.085217,37.4878261 138.085217,36.3347826 L138.085217,2.60521739 C138.085217,1.45304348 137.476522,0.843478261 136.32,0.843478261 L136.22087,0.843478261 C135.066087,0.843478261 134.456522,1.45304348 134.456522,2.60521739 L134.456522,36.3347826 C134.456522,37.4878261 135.066087,38.0973913 136.22087,38.0973913 L136.32,38.0973913" id="Fill-7" fill="#FFFFFE"></path>
                    <path d="M119.438261,15.7278261 C119.438261,13.8165217 120.327826,12.9286957 122.237391,12.9286957 L122.804348,12.9286957 C124.675652,12.9286957 125.549565,13.8165217 125.549565,15.7278261 L125.549565,21.9095652 L119.438261,21.9095652 L119.438261,15.7278261 Z M127.15913,25.3852174 C128.46087,25.3852174 129.178261,24.6669565 129.178261,23.3669565 L129.178261,15.8295652 C129.178261,11.6321739 127.049565,9.50434783 122.854783,9.50434783 L122.135652,9.50434783 C117.938261,9.50434783 115.810435,11.6321739 115.810435,15.8295652 L115.810435,31.9765217 C115.810435,36.173913 117.938261,38.3017391 122.135652,38.3017391 L122.854783,38.3017391 C127.049565,38.3017391 129.178261,36.173913 129.178261,31.9765217 L129.178261,30.1330435 C129.178261,29.0286957 128.570435,28.4191304 127.466957,28.4191304 L127.365217,28.4191304 C126.26087,28.4191304 125.651304,29.0286957 125.651304,30.1330435 L125.651304,32.0791304 C125.651304,33.9530435 124.762609,34.8269565 122.854783,34.8269565 L122.237391,34.8269565 C120.327826,34.8269565 119.438261,33.9530435 119.438261,32.0791304 L119.438261,25.3852174 L127.15913,25.3852174 Z" id="Fill-8" fill="#FFFFFE"></path>
                    <path d="M106.204348,9.70956522 L106.10087,9.70956522 C105.013913,9.70956522 104.391304,10.3165217 104.391304,11.3713043 L104.391304,36.3347826 C104.391304,37.4878261 104.981739,38.0973913 106.10087,38.0973913 L106.204348,38.0973913 C107.35913,38.0973913 107.968696,37.4878261 107.968696,36.3347826 L107.968696,15.5069565 C108.831304,14.6747826 109.889565,14.0626087 111.113043,13.686087 C112.665217,13.2408696 112.990435,12.2930435 112.990435,11.5765217 L112.990435,11.2686957 C112.990435,9.81217391 112.114783,9.50434783 111.382609,9.50434783 C110.324348,9.50434783 109.202609,10.2756522 107.968696,11.8556522 L107.968696,11.3713043 C107.968696,10.2982609 107.34087,9.70956522 106.204348,9.70956522" id="Fill-9" fill="#FFFFFE"></path>
                    <path d="M95.9147826,32.0791304 C95.9147826,33.9530435 95.0408696,34.8269565 93.166087,34.8269565 L92.1904348,34.8269565 C90.3191304,34.8269565 89.4452174,33.9530435 89.4452174,32.0791304 L89.4452174,15.7278261 C89.4452174,13.8165217 90.3191304,12.9286957 92.1904348,12.9286957 L93.166087,12.9286957 C95.0408696,12.9286957 95.9147826,13.8165217 95.9147826,15.7278261 L95.9147826,32.0791304 Z M93.2173913,9.50434783 L92.1426087,9.50434783 C87.9452174,9.50434783 85.8165217,11.6321739 85.8165217,15.8295652 L85.8165217,31.9765217 C85.8165217,36.173913 87.9452174,38.3017391 92.1426087,38.3017391 L93.2173913,38.3017391 C97.3817391,38.3017391 99.4921739,36.173913 99.4921739,31.9765217 L99.4921739,15.8295652 C99.4921739,11.6321739 97.3817391,9.50434783 93.2173913,9.50434783 Z" id="Fill-10" fill="#FFFFFE"></path>
                    <path d="M79.3513043,20.5678261 L79.453913,20.5678261 C80.6086957,20.5678261 81.2182609,19.9573913 81.2182609,18.8034783 L81.2182609,15.7278261 C81.2182609,11.5991304 79.1234783,9.50434783 74.9956522,9.50434783 L74.1243478,9.50434783 C69.9269565,9.50434783 67.7991304,11.6321739 67.7991304,15.8295652 L67.7991304,31.9765217 C67.7991304,36.173913 69.9269565,38.3017391 74.1243478,38.3017391 L74.9956522,38.3017391 C79.1591304,38.3017391 81.2695652,36.173913 81.2695652,31.9765217 L81.2695652,28.0808696 C81.2695652,26.9773913 80.6417391,26.3704348 79.5043478,26.3704348 L79.4026087,26.3704348 C78.2991304,26.3704348 77.6921739,26.9773913 77.6921739,28.0808696 L77.6921739,32.0791304 C77.6921739,33.9530435 76.8191304,34.8269565 74.9443478,34.8269565 L74.1756522,34.8269565 C72.2982609,34.8269565 71.4252174,33.9530435 71.4252174,32.0791304 L71.4252174,15.7278261 C71.4252174,13.8165217 72.2982609,12.9286957 74.1756522,12.9286957 L74.8930435,12.9286957 C76.7678261,12.9286957 77.6408696,13.8165217 77.6408696,15.7278261 L77.6408696,18.8034783 C77.6408696,19.9573913 78.2321739,20.5678261 79.3513043,20.5678261" id="Fill-11" fill="#FFFFFE"></path>
                    <path d="M181.329565,9.50434783 C179.716522,9.50434783 178.105217,10.1913043 176.531304,11.5478261 L176.531304,2.60521739 C176.531304,1.45304348 175.92087,0.843478261 174.768696,0.843478261 L174.663478,0.843478261 C173.544348,0.843478261 172.953043,1.45304348 172.953043,2.60521739 L172.953043,36.3347826 C172.953043,37.4878261 173.544348,38.0973913 174.663478,38.0973913 L174.768696,38.0973913 C175.92087,38.0973913 176.531304,37.4878261 176.531304,36.3347826 L176.531304,15.0052174 C178.177391,13.573913 179.546957,12.8773913 180.715652,12.8773913 C182.113913,12.8773913 182.794783,13.6095652 182.794783,15.1130435 L182.794783,36.3347826 C182.794783,37.4878261 183.404348,38.0973913 184.55913,38.0973913 L184.661739,38.0973913 C185.78,38.0973913 186.372174,37.4878261 186.372174,36.3347826 L186.372174,14.5495652 C186.372174,11.2486957 184.627826,9.50434783 181.329565,9.50434783" id="Fill-12" fill="#FFFFFE"></path>
                    <path d="M194.435652,38.0973913 L194.333913,38.0973913 C193.178261,38.0973913 192.569565,37.4878261 192.569565,36.3347826 L192.569565,13.1843478 L192.078261,13.1843478 C191.022609,13.1843478 190.418261,12.58 190.418261,11.5252174 L190.418261,11.4226087 C190.418261,10.3826087 191.006957,9.81130435 192.078261,9.81130435 L192.569565,9.81130435 L192.569565,6.85913043 C192.569565,5.70695652 193.178261,5.0973913 194.333913,5.0973913 L194.435652,5.0973913 C195.588696,5.0973913 196.198261,5.70695652 196.198261,6.85913043 L196.198261,9.81130435 L197.921739,9.81130435 C198.976522,9.81130435 199.532174,10.3678261 199.532174,11.4226087 L199.532174,11.5252174 C199.532174,12.5956522 198.961739,13.1843478 197.921739,13.1843478 L196.198261,13.1843478 L196.198261,36.3347826 C196.198261,37.4878261 195.588696,38.0973913 194.435652,38.0973913" id="Fill-13" fill="#FFFFFE"></path>
                </g>
            </g>
        </g>
    </g>
</svg>