<?xml version="1.0" encoding="UTF-8"?>
<svg width="21px" height="21px" viewBox="0 0 21 21" version="1.1" xmlns="http://www.w3.org/2000/svg" xmlns:xlink="http://www.w3.org/1999/xlink">
    <!-- Generator: Sketch 51.2 (57519) - http://www.bohemiancoding.com/sketch -->
    <title>img icon download</title>
    <desc>Created with Sketch.</desc>
    <defs>
        <polygon id="path-1" points="21.9998952 21.9998429 21.9998952 0 0 0 1.16309079e-15 21.9998429 21.9998952 21.9998429"></polygon>
    </defs>
    <g id="Page-1" stroke="none" stroke-width="1" fill="none" fill-rule="evenodd">
        <g id="XL-Desktop-HD-default-screen" transform="translate(-956.000000, -1159.000000)">
            <g id="ad" transform="translate(935.000000, 804.000000)">
                <g id="img-icon-download" transform="translate(20.000000, 355.000000)">
                    <g id="icon_download">
                        <g id="Page-1" transform="translate(1.000000, 0.000000)">
                            <g id="Group-3">
                                <mask id="mask-2" fill="white">
                                    <use xlink:href="#path-1"></use>
                                </mask>
                                <g id="Clip-2"></g>
                                <path d="M17,21 L4,21 C1.7945,21 0,19.206 0,17 L0,4 C0,1.7945 1.7945,0 4,0 L17,0 C19.2055,0 21,1.7945 21,4 L21,17 C21,19.206 19.2055,21 17,21 Z M4.61483254,1.90909091 C3.12261603,1.90909091 1.90909091,3.12306699 1.90909091,4.61483254 L1.90909091,16.3397129 C1.90909091,17.8319294 3.12261603,19.0454545 4.61483254,19.0454545 L16.3397129,19.0454545 C17.8314785,19.0454545 19.0454545,17.8319294 19.0454545,16.3397129 L19.0454545,4.61483254 C19.0454545,3.12306699 17.8314785,1.90909091 16.3397129,1.90909091 L4.61483254,1.90909091 Z" id="Fill-1" fill="#337AB7" mask="url(#mask-2)"></path>
                            </g>
                            <path d="M10.4783727,16.2608696 C10.2948833,16.2608696 10.1113938,16.2004266 9.96190391,16.0795407 L5.98881764,12.8739611 C5.64450508,12.5959235 5.59647402,12.09924 5.88196202,11.7633874 C6.16691034,11.4285859 6.67744275,11.3818083 7.02175531,11.6593203 L10.4783727,14.4486318 L13.9349902,11.6593203 C14.2787631,11.3823339 14.7892955,11.4280603 15.0747835,11.7633874 C15.3597318,12.0987144 15.3122404,12.5959235 14.9679278,12.8739611 L10.9948416,16.0795407 C10.844812,16.2004266 10.6613225,16.2608696 10.4783727,16.2608696" id="Fill-4" fill="#337AB7"></path>
                            <path d="M10.4782609,16.2608696 C9.94962319,16.2608696 9.52173913,15.8995697 9.52173913,15.4543966 L9.52173913,5.58908166 C9.52173913,5.14390858 9.94962319,4.7826087 10.4782609,4.7826087 C11.0062609,4.7826087 11.4347826,5.14390858 11.4347826,5.58908166 L11.4347826,15.4543966 C11.4347826,15.8995697 11.0062609,16.2608696 10.4782609,16.2608696" id="Fill-6" fill="#337AB7"></path>
                        </g>
                    </g>
                </g>
            </g>
        </g>
    </g>
</svg>